<svg xmlns="http://www.w3.org/2000/svg" viewBox="0 0 24 24" width="100%" height="100%" fill="none">
  <defs>
    <linearGradient id="geminiGrad" x1="0%" y1="0%" x2="100%" y2="100%">
      <stop offset="0%" stop-color="#7A9FFF" />
      <stop offset="100%" stop-color="#4285F4" />
    </linearGradient>
  </defs>
  <rect width="24" height="24" rx="5" fill="url(#geminiGrad)" />
  <path d="M12 6c.3 3.5 2.5 5.7 6 6-3.5.3-5.7 2.5-6 6-.3-3.5-2.5-5.7-6-6 3.5-.3 5.7-2.5 6-6Z" fill="#FFF" />
  <path d="M17.5 15.5c.1 1.5 1.1 2.5 2.5 2.6-1.4.1-2.4 1.1-2.5 2.5-.1-1.4-1.1-2.4-2.5-2.5 1.4-.1 2.4-1.1 2.5-2.6Z" fill="#FFF" opacity="0.7" />
</svg>
