<svg xmlns="http://www.w3.org/2000/svg" viewBox="0 0 24 24" width="100%" height="100%" fill="none">
  <rect width="24" height="24" rx="5" fill="#10A37F" />
  <path d="M12.5 8.5a1.5 1.5 0 1 1-3 0 1.5 1.5 0 0 1 3 0Zm4.33 2.5a1.5 1.5 0 1 1-3 0 1.5 1.5 0 0 1 3 0Zm-1.83 5a1.5 1.5 0 1 1-3 0 1.5 1.5 0 0 1 3 0Zm-5 0a1.5 1.5 0 1 1-3 0 1.5 1.5 0 0 1 3 0Zm-1.83-5a1.5 1.5 0 1 1-3 0 1.5 1.5 0 0 1 3 0Zm1.83-5a1.5 1.5 0 1 1-3 0 1.5 1.5 0 0 1 3 0Z" fill="#FFF" opacity="0.3" />
  <path d="M12 10.5a1.5 1.5 0 1 0 0 3 1.5 1.5 0 0 0 0-3Z" fill="#FFF" />
</svg>
